<svg width="20" height="20" viewBox="0 0 20 20" fill="none" xmlns="http://www.w3.org/2000/svg">
<path fill-rule="evenodd" clip-rule="evenodd" d="M11.8684 0.833496H5.6329C4.9621 0.833486 4.40846 0.833478 3.95746 0.870325C3.48905 0.908596 3.05846 0.990733 2.65402 1.19681C2.02681 1.51639 1.51687 2.02632 1.1973 2.65353C0.991221 3.05798 0.909084 3.48856 0.870813 3.95698C0.833966 4.40797 0.833974 4.9616 0.833985 5.6324V10.0002C0.833985 11.7159 2.1303 13.1289 3.79695 13.3132L3.79695 14.6575C3.79691 14.8847 3.79688 15.1076 3.81273 15.2868C3.82681 15.4459 3.86369 15.7757 4.09796 16.0489C4.3591 16.3535 4.75059 16.5143 5.15044 16.481C5.50913 16.4512 5.76706 16.2426 5.88893 16.1392C6.02613 16.0229 6.18267 15.8643 6.34228 15.7027L7.5031 14.5273C7.50601 14.7342 7.51234 14.9225 7.52613 15.0913C7.55304 15.4207 7.61247 15.7484 7.77314 16.0637C8.01282 16.5341 8.39527 16.9166 8.86568 17.1563C9.18099 17.3169 9.50867 17.3763 9.83813 17.4033C10.1503 17.4288 10.5293 17.4288 10.9686 17.4287H12.4981C12.8383 17.4287 12.9049 17.4319 12.9626 17.4425C13.0291 17.4548 13.0938 17.4751 13.1554 17.503C13.2088 17.5271 13.2653 17.5626 13.5446 17.7568L15.3583 19.0177C15.613 19.1948 15.9451 19.2157 16.22 19.072C16.495 18.9283 16.6673 18.6438 16.6673 18.3335V17.427C16.8142 17.424 16.9491 17.4161 17.0752 17.3952C18.1314 17.2206 18.9592 16.3928 19.1338 15.3366C19.1677 15.1319 19.1675 14.9041 19.1673 14.6393L19.1673 11.8014C19.1673 11.3621 19.1673 10.9831 19.1418 10.671C19.1149 10.3415 19.0555 10.0138 18.8948 9.69852C18.6552 9.22812 18.2727 8.84567 17.8023 8.60598C17.487 8.44532 17.1593 8.38589 16.8298 8.35897C16.7775 8.3547 16.7233 8.35114 16.6673 8.34818V5.63239C16.6673 4.9616 16.6673 4.40797 16.6305 3.95698C16.5922 3.48856 16.5101 3.05798 16.304 2.65353C15.9844 2.02632 15.4745 1.51639 14.8473 1.19681C14.4428 0.990733 14.0123 0.908596 13.5438 0.870325C13.0928 0.833478 12.5392 0.833486 11.8684 0.833496ZM15.0007 8.3335V5.66683C15.0007 4.95301 15 4.46777 14.9694 4.0927C14.9395 3.72735 14.8854 3.54051 14.819 3.41018C14.6592 3.09658 14.4042 2.84161 14.0906 2.68182C13.9603 2.61541 13.7735 2.56131 13.4081 2.53146C13.033 2.50081 12.5478 2.50016 11.834 2.50016H5.66732C4.9535 2.50016 4.46826 2.50081 4.09318 2.53146C3.72784 2.56131 3.541 2.61541 3.41067 2.68182C3.09706 2.84161 2.8421 3.09658 2.68231 3.41018C2.6159 3.54051 2.56179 3.72735 2.53194 4.0927C2.5013 4.46777 2.50065 4.95301 2.50065 5.66683V10.0002C2.50065 10.9206 3.24684 11.6668 4.16732 11.6668H4.63028C5.09052 11.6668 5.46361 12.0399 5.46361 12.5002V14.2205L7.50065 12.158V11.8014C7.50064 11.3621 7.50062 10.9831 7.52613 10.671C7.55304 10.3415 7.61247 10.0138 7.77314 9.69852C8.01282 9.22812 8.39527 8.84567 8.86568 8.60598C9.18099 8.44532 9.50867 8.38589 9.83813 8.35897C10.1503 8.33347 10.5292 8.33348 10.9685 8.3335H15.0007ZM15.0007 16.5954V16.7392L14.4529 16.3583C14.2404 16.2104 14.0529 16.0799 13.843 15.9847C13.6583 15.9011 13.4641 15.8402 13.2647 15.8035C13.038 15.7617 12.8095 15.7619 12.5506 15.762L11.0007 15.7621C10.5202 15.7621 10.21 15.7614 9.97385 15.7421C9.74746 15.7236 9.66353 15.6922 9.62233 15.6712C9.46552 15.5913 9.33804 15.4639 9.25815 15.3071C9.23715 15.2659 9.20575 15.1819 9.18726 14.9555C9.16797 14.7194 9.16732 14.4092 9.16732 13.9287V11.8335C9.16732 11.353 9.16797 11.0428 9.18726 10.8067C9.20575 10.5803 9.23715 10.4964 9.25815 10.4552C9.33804 10.2984 9.46552 10.1709 9.62233 10.091C9.66353 10.07 9.74746 10.0386 9.97385 10.0201C10.21 10.0008 10.5202 10.0002 11.0007 10.0002H15.6673C16.1478 10.0002 16.458 10.0008 16.6941 10.0201C16.9205 10.0386 17.0044 10.07 17.0456 10.091C17.2024 10.1709 17.3299 10.2984 17.4098 10.4552C17.4308 10.4964 17.4622 10.5803 17.4807 10.8067C17.5 11.0428 17.5007 11.353 17.5007 11.8335V14.581C17.5007 14.9373 17.4978 15.0142 17.4895 15.0647C17.4313 15.4168 17.1553 15.6927 16.8033 15.7509C16.7528 15.7593 16.6759 15.7621 16.3196 15.7621H15.834C15.3737 15.7621 15.0007 16.1352 15.0007 16.5954Z" fill="currentColor" fill-opacity="0.87"/>
</svg>
