<svg width="13" height="13" viewBox="0 0 13 13" fill="none" xmlns="http://www.w3.org/2000/svg">
<path fill-rule="evenodd" clip-rule="evenodd" d="M4.10598 8.94716C5.42684 10.268 7.00871 11.1655 8.68496 11.6413C9.0246 11.7377 9.11391 11.7596 9.2622 11.76C9.42884 11.7605 9.69177 11.6922 9.83706 11.6105C9.96241 11.5401 10.0569 11.452 10.3837 11.1252L10.4757 11.0333C10.8181 10.6909 10.8853 10.6133 10.9168 10.551C11.0006 10.3855 11.0006 10.19 10.9168 10.0244C10.8853 9.96217 10.8181 9.88457 10.4757 9.54214L10.362 9.42846C10.137 9.20346 10.0864 9.15739 10.0481 9.13246C9.85472 9.00676 9.60546 9.00676 9.41212 9.13246C9.37378 9.15739 9.32319 9.20346 9.09819 9.42846C9.09375 9.4329 9.08919 9.43747 9.08453 9.44215C9.03218 9.49469 8.96591 9.5612 8.88632 9.61819C8.60225 9.82161 8.21604 9.88746 7.88061 9.78968C7.78705 9.76241 7.71005 9.72529 7.65014 9.69641C7.64541 9.69413 7.64077 9.69189 7.63625 9.68972C6.73211 9.25562 5.88529 8.66407 5.13718 7.91596C4.38907 7.16785 3.79752 6.32103 3.36342 5.41689C3.36124 5.41236 3.35901 5.40773 3.35673 5.40299C3.32785 5.34309 3.29073 5.26608 3.26346 5.17253C3.16568 4.8371 3.23153 4.45089 3.43494 4.16681C3.49193 4.08723 3.55844 4.02095 3.61098 3.96861C3.61566 3.96394 3.62023 3.95939 3.62468 3.95495C3.84967 3.72995 3.89574 3.67936 3.92067 3.64102C4.04638 3.44767 4.04638 3.19842 3.92067 3.00508C3.89574 2.96673 3.84967 2.91614 3.62468 2.69114L3.511 2.57747C3.16857 2.23504 3.09097 2.1678 3.02871 2.13631C2.86317 2.05259 2.66768 2.05259 2.50214 2.13631C2.43988 2.1678 2.36228 2.23504 2.01985 2.57747L1.9279 2.66942C1.6011 2.99622 1.51302 3.09073 1.4426 3.21608C1.36099 3.36137 1.29261 3.6243 1.2931 3.79094C1.29355 3.93923 1.31544 4.02853 1.41184 4.36818C1.88761 6.04443 2.78513 7.6263 4.10598 8.94716ZM8.36641 12.7636C6.50369 12.2349 4.74614 11.2372 3.28102 9.77211C1.8159 8.30699 0.818199 6.54944 0.289504 4.68673C0.28637 4.67569 0.283259 4.66474 0.280173 4.65388C0.194126 4.35113 0.127401 4.11635 0.126442 3.79441C0.125347 3.42646 0.245227 2.96549 0.425436 2.64469C0.583402 2.36348 0.791743 2.15536 1.06342 1.88396C1.07645 1.87094 1.08962 1.85778 1.10294 1.84447L1.19489 1.75251C1.2137 1.7337 1.2323 1.71505 1.25072 1.69658C1.50415 1.44251 1.72322 1.22288 1.97557 1.09524C2.47218 0.844054 3.05867 0.844054 3.55528 1.09524C3.80763 1.22288 4.0267 1.44251 4.28012 1.69658C4.29855 1.71505 4.31715 1.7337 4.33596 1.75251L4.44963 1.86619C4.46203 1.87858 4.47431 1.89084 4.48646 1.90298C4.65368 2.06991 4.79772 2.21371 4.89878 2.36914C5.2759 2.94917 5.2759 3.69693 4.89878 4.27695C4.79772 4.43238 4.65368 4.57618 4.48646 4.74312C4.47431 4.75525 4.46203 4.76751 4.44963 4.77991C4.41603 4.81351 4.39889 4.83075 4.38694 4.84338C4.38673 4.84433 4.38651 4.84538 4.38632 4.84651C4.3861 4.84778 4.38595 4.84895 4.38583 4.85001C4.38776 4.85427 4.39036 4.85991 4.39394 4.86753C4.39955 4.87945 4.40614 4.89318 4.41514 4.91193C4.79304 5.69901 5.30841 6.43727 5.96214 7.091C6.61587 7.74473 7.35413 8.2601 8.14121 8.63799C8.15996 8.647 8.17369 8.65358 8.1856 8.65919C8.19322 8.66278 8.19886 8.66538 8.20313 8.6673C8.20419 8.66719 8.20536 8.66703 8.20662 8.66682C8.20776 8.66662 8.20881 8.66641 8.20976 8.66619C8.22239 8.65425 8.23963 8.63711 8.27323 8.6035C8.28563 8.59111 8.29789 8.57883 8.31002 8.56667C8.47696 8.39945 8.62075 8.25541 8.77618 8.15436C9.35621 7.77724 10.104 7.77724 10.684 8.15436C10.8394 8.25541 10.9832 8.39946 11.1502 8.56667C11.1623 8.57883 11.1746 8.59111 11.187 8.6035L11.3006 8.71718C11.3194 8.73599 11.3381 8.75459 11.3566 8.77301C11.6106 9.02644 11.8303 9.24551 11.9579 9.49785C12.2091 9.99447 12.2091 10.581 11.9579 11.0776C11.8303 11.3299 11.6106 11.549 11.3566 11.8024C11.3381 11.8208 11.3194 11.8394 11.3006 11.8582L11.2087 11.9502C11.1954 11.9635 11.1822 11.9767 11.1692 11.9897C10.8978 12.2614 10.6897 12.4697 10.4084 12.6277C10.0876 12.8079 9.62667 12.9278 9.25872 12.9267C8.93679 12.9257 8.70201 12.859 8.39926 12.773C8.3884 12.7699 8.37745 12.7668 8.36641 12.7636Z" fill="currentColor" fill-opacity="0.87"/>
</svg>
