<svg width="16" height="17" viewBox="0 0 16 17" fill="none" xmlns="http://www.w3.org/2000/svg">
<g id="calendar-check-01">
<g id="Union">
<path d="M10.8047 9.02868C11.0651 9.28903 11.0651 9.71114 10.8047 9.97149L7.80472 12.9715C7.54437 13.2318 7.12226 13.2318 6.86191 12.9715L5.52858 11.6382C5.26823 11.3778 5.26823 10.9557 5.52858 10.6953C5.78892 10.435 6.21103 10.435 6.47138 10.6953L7.33331 11.5573L9.86191 9.02868C10.1223 8.76833 10.5444 8.76833 10.8047 9.02868Z" fill="currentColor"/>
<path fill-rule="evenodd" clip-rule="evenodd" d="M10.6666 1.16675C11.0348 1.16675 11.3333 1.46522 11.3333 1.83341V2.50117C11.6503 2.50334 11.9273 2.50989 12.1679 2.52954C12.5426 2.56016 12.8871 2.62587 13.2106 2.79073C13.7124 3.04639 14.1203 3.45434 14.376 3.95611C14.5409 4.27966 14.6066 4.62413 14.6372 4.99886C14.6667 5.35966 14.6667 5.80256 14.6666 6.3392V11.9943C14.6667 12.5309 14.6667 12.9738 14.6372 13.3346C14.6066 13.7094 14.5409 14.0538 14.376 14.3774C14.1203 14.8792 13.7124 15.2871 13.2106 15.5428C12.8871 15.7076 12.5426 15.7733 12.1679 15.804C11.8071 15.8334 11.3642 15.8334 10.8275 15.8334H5.17243C4.63579 15.8334 4.19289 15.8334 3.8321 15.804C3.45736 15.7733 3.1129 15.7076 2.78934 15.5428C2.28757 15.2871 1.87963 14.8792 1.62396 14.3774C1.4591 14.0538 1.39339 13.7094 1.36278 13.3346C1.3333 12.9738 1.33331 12.5309 1.33331 11.9943V6.33922C1.33331 5.80257 1.3333 5.35966 1.36278 4.99886C1.39339 4.62413 1.4591 4.27966 1.62396 3.95611C1.87963 3.45434 2.28757 3.04639 2.78934 2.79073C3.1129 2.62587 3.45736 2.56016 3.8321 2.52954C4.07264 2.50989 4.34967 2.50334 4.66665 2.50117V1.83341C4.66665 1.46522 4.96512 1.16675 5.33331 1.16675C5.7015 1.16675 5.99998 1.46522 5.99998 1.83341V2.50008H9.99998V1.83341C9.99998 1.46522 10.2985 1.16675 10.6666 1.16675ZM4.66665 3.83459V4.50008C4.66665 4.86827 4.96512 5.16675 5.33331 5.16675C5.7015 5.16675 5.99998 4.86827 5.99998 4.50008V3.83342H9.99998V4.50008C9.99998 4.86827 10.2985 5.16675 10.6666 5.16675C11.0348 5.16675 11.3333 4.86827 11.3333 4.50008V3.83459C11.6303 3.83668 11.8636 3.84246 12.0593 3.85845C12.3516 3.88233 12.501 3.92561 12.6053 3.97874C12.8562 4.10657 13.0602 4.31055 13.188 4.56143C13.2411 4.66569 13.2844 4.81516 13.3083 5.10744C13.3328 5.4075 13.3333 5.7957 13.3333 6.36675V6.50008H2.66665V6.36675C2.66665 5.7957 2.66717 5.4075 2.69168 5.10744C2.71556 4.81516 2.75885 4.66569 2.81197 4.56143C2.9398 4.31055 3.14378 4.10657 3.39466 3.97874C3.49893 3.92561 3.6484 3.88233 3.94067 3.85845C4.1364 3.84246 4.36963 3.83668 4.66665 3.83459ZM2.66665 7.83341H13.3333V11.9667C13.3333 12.5378 13.3328 12.926 13.3083 13.2261C13.2844 13.5183 13.2411 13.6678 13.188 13.7721C13.0602 14.023 12.8562 14.2269 12.6053 14.3548C12.501 14.4079 12.3516 14.4512 12.0593 14.475C11.7592 14.4996 11.371 14.5001 10.8 14.5001H5.19998C4.62893 14.5001 4.24073 14.4996 3.94067 14.475C3.6484 14.4512 3.49893 14.4079 3.39466 14.3548C3.14378 14.2269 2.9398 14.023 2.81197 13.7721C2.75885 13.6678 2.71556 13.5183 2.69168 13.2261C2.66717 12.926 2.66665 12.5378 2.66665 11.9667V7.83341Z" fill="currentColor"/>
</g>
</g>
</svg>
