<svg width="10" height="12" viewBox="0 0 10 12" fill="none" xmlns="http://www.w3.org/2000/svg">
<path fill-rule="evenodd" clip-rule="evenodd" d="M4.41074 6.24404C4.73618 5.9186 5.26382 5.9186 5.58926 6.24404L9.75592 10.4107C10.0814 10.7361 10.0814 11.2638 9.75592 11.5892C9.43049 11.9147 8.90285 11.9147 8.57741 11.5892L5 8.0118L1.42259 11.5892C1.09715 11.9147 0.569515 11.9147 0.244078 11.5892C-0.0813592 11.2638 -0.0813592 10.7361 0.244078 10.4107L4.41074 6.24404Z" fill="#FF4C51"/>
<path fill-rule="evenodd" clip-rule="evenodd" d="M4.41074 0.410704C4.73618 0.0852667 5.26382 0.0852667 5.58926 0.410704L9.75592 4.57737C10.0814 4.90281 10.0814 5.43044 9.75592 5.75588C9.43049 6.08132 8.90285 6.08132 8.57741 5.75588L5 2.17847L1.42259 5.75588C1.09715 6.08132 0.569515 6.08132 0.244078 5.75588C-0.0813592 5.43044 -0.0813592 4.90281 0.244078 4.57737L4.41074 0.410704Z" fill="#FF4C51"/>
</svg>
