<svg width="10" height="12" viewBox="0 0 10 12" fill="none" xmlns="http://www.w3.org/2000/svg">
<path fill-rule="evenodd" clip-rule="evenodd" d="M0.244078 6.24416C0.569515 5.91872 1.09715 5.91872 1.42259 6.24416L5 9.82157L8.57741 6.24416C8.90285 5.91872 9.43049 5.91872 9.75592 6.24416C10.0814 6.5696 10.0814 7.09723 9.75592 7.42267L5.58926 11.5893C5.26382 11.9148 4.73618 11.9148 4.41074 11.5893L0.244078 7.42267C-0.0813592 7.09723 -0.0813592 6.5696 0.244078 6.24416Z" fill="#139CE0"/>
<path fill-rule="evenodd" clip-rule="evenodd" d="M0.244078 0.410826C0.569515 0.0853888 1.09715 0.0853888 1.42259 0.410826L5 3.98824L8.57741 0.410826C8.90285 0.0853888 9.43049 0.0853888 9.75592 0.410826C10.0814 0.736263 10.0814 1.2639 9.75592 1.58934L5.58926 5.756C5.26382 6.08144 4.73618 6.08144 4.41074 5.756L0.244078 1.58934C-0.0813592 1.2639 -0.0813592 0.736263 0.244078 0.410826Z" fill="#139CE0"/>
</svg>
