<svg width="14" height="12" viewBox="0 0 14 12" fill="none" xmlns="http://www.w3.org/2000/svg">
<path fill-rule="evenodd" clip-rule="evenodd" d="M10.0581 0.75H3.94326C3.4737 0.749993 3.08615 0.749987 2.77046 0.77578C2.44257 0.80257 2.14116 0.860066 1.85804 1.00432C1.419 1.22802 1.06204 1.58498 0.838339 2.02402C0.699132 2.29723 0.640719 2.58748 0.612727 2.90212C0.581561 2.9974 0.576095 3.0979 0.594603 3.19385C0.58401 3.45644 0.584015 3.76018 0.58402 4.10924V7.89076C0.584013 8.36032 0.584007 8.74787 0.6098 9.06357C0.63659 9.39146 0.694086 9.69287 0.838339 9.97598C1.06204 10.415 1.419 10.772 1.85804 10.9957C2.14116 11.1399 2.44257 11.1974 2.77046 11.2242C3.08615 11.25 3.47369 11.25 3.94325 11.25H10.0581C10.5277 11.25 10.9152 11.25 11.2309 11.2242C11.5588 11.1974 11.8602 11.1399 12.1433 10.9957C12.5824 10.772 12.9393 10.415 13.163 9.97598C13.3073 9.69287 13.3648 9.39146 13.3916 9.06357C13.4174 8.74787 13.4174 8.36033 13.4174 7.89077V4.10923C13.4174 3.76023 13.4174 3.45653 13.4068 3.19397C13.4253 3.09795 13.4198 2.99736 13.3886 2.90201C13.3606 2.58741 13.3022 2.2972 13.163 2.02402C12.9393 1.58498 12.5824 1.22802 12.1433 1.00432C11.8602 0.860066 11.5588 0.80257 11.2309 0.77578C10.9152 0.749987 10.5277 0.749993 10.0581 0.75ZM12.2024 2.81341C12.1816 2.69257 12.1545 2.61437 12.1235 2.55368C12.0117 2.33416 11.8332 2.15568 11.6137 2.04383C11.5224 1.99734 11.3917 1.95947 11.1359 1.93857C10.8734 1.91712 10.5337 1.91667 10.034 1.91667H3.96735C3.46768 1.91667 3.12801 1.91712 2.86546 1.93857C2.60972 1.95947 2.47893 1.99734 2.3877 2.04383C2.16818 2.15568 1.9897 2.33416 1.87785 2.55368C1.84692 2.61437 1.81981 2.69256 1.79897 2.81339L5.6594 5.51569C5.66527 5.51964 5.67108 5.5237 5.67683 5.52789L6.26476 5.93944C6.68997 6.23709 6.78006 6.28873 6.85961 6.30856C6.95225 6.33165 7.04915 6.33165 7.14179 6.30856C7.22134 6.28873 7.31143 6.23709 7.73664 5.93944L8.32322 5.52883C8.32983 5.524 8.33651 5.51932 8.34328 5.51479L12.2024 2.81341ZM8.62118 6.74436L8.33841 6.9424C8.02069 7.16549 7.74171 7.36139 7.42397 7.44059C7.14604 7.50987 6.85536 7.50987 6.57743 7.44059C6.25969 7.36139 5.98071 7.16549 5.66299 6.9424L5.38019 6.74434L2.078 9.72697C2.16727 9.81945 2.27176 9.8971 2.3877 9.95617C2.47893 10.0027 2.60972 10.0405 2.86546 10.0614C3.12801 10.0829 3.46768 10.0833 3.96735 10.0833H10.034C10.5337 10.0833 10.8734 10.0829 11.1359 10.0614C11.3917 10.0405 11.5224 10.0027 11.6137 9.95617C11.7296 9.8971 11.8341 9.81945 11.9234 9.72699L8.62118 6.74436ZM4.3996 6.05792L1.75069 4.20369V7.86667C1.75069 8.09019 1.75078 8.28169 1.7528 8.44859L4.3996 6.05792ZM9.60177 6.05794L12.2507 4.2037V7.86667C12.2507 8.0902 12.2506 8.28171 12.2486 8.44862L9.60177 6.05794Z" fill="currentColor" fill-opacity="0.87"/>
</svg>
